# Blender 3.6.4
# www.blender.org
mtllib Isquiotables.mtl
o Char_lp
v 0.743673 0.211399 -0.241897
o Char_Mlp.013
v 0.126829 0.685580 -0.066460
v 0.160428 0.687433 -0.050760
v -0.126829 0.685580 -0.066460
v -0.160429 0.687433 -0.050760
v 0.132266 0.767466 -0.078368
v 0.171345 0.781093 -0.053164
v -0.132266 0.767466 -0.078368
v -0.171345 0.781093 -0.053164
v 0.082309 0.847826 -0.086897
v 0.136292 0.874965 -0.094690
v 0.174257 0.900655 -0.052342
v -0.082309 0.847826 -0.086897
v -0.136292 0.874965 -0.094690
v -0.174257 0.900655 -0.052342
v -0.171032 0.959271 -0.050990
v -0.079689 0.897656 -0.089036
v 0.144745 0.686429 -0.061226
v -0.107837 0.861143 -0.096618
v -0.131221 0.929011 -0.092929
v -0.104539 0.913114 -0.098120
v -0.160432 0.888639 -0.078136
v -0.152876 0.944540 -0.074288
v 0.109305 0.760012 -0.079402
v 0.129226 0.722349 -0.071097
v 0.108985 0.717603 -0.074171
v 0.154570 0.774357 -0.070206
v 0.164568 0.729899 -0.050633
v 0.149098 0.726023 -0.064625
v 0.084647 0.797774 -0.082583
v 0.107837 0.861143 -0.096618
v 0.135164 0.819353 -0.087090
v 0.109228 0.808777 -0.086854
v 0.160432 0.888639 -0.078136
v 0.176492 0.839458 -0.054774
v 0.159738 0.829814 -0.075977
v -0.109305 0.760012 -0.079402
v -0.129226 0.722349 -0.071097
v -0.108985 0.717603 -0.074171
v -0.154570 0.774357 -0.070206
v -0.144745 0.686429 -0.061226
v -0.164568 0.729899 -0.050633
v -0.149098 0.726023 -0.064625
v 0.079689 0.897656 -0.089036
v 0.131221 0.929011 -0.092929
v 0.104539 0.913114 -0.098120
v 0.171032 0.959271 -0.050990
v 0.152876 0.944540 -0.074288
v -0.084647 0.797774 -0.082583
v -0.135164 0.819353 -0.087090
v -0.109228 0.808777 -0.086854
v -0.176492 0.839458 -0.054774
v -0.159738 0.829814 -0.075977
v -0.142200 0.670875 -0.059640
v -0.097826 0.755722 -0.079365
v -0.147557 0.967456 -0.073247
v -0.127329 0.951265 -0.092937
v -0.101176 0.934736 -0.097990
v 0.147557 0.967456 -0.073247
v 0.127329 0.951265 -0.092937
v 0.101176 0.934736 -0.097990
v 0.097826 0.755722 -0.079365
v 0.142200 0.670875 -0.059640
v 0.039185 0.905618 -0.051696
v -0.039185 0.905618 -0.051696
v 0.055542 0.668399 -0.050241
v 0.090093 0.678627 -0.072815
v -0.055542 0.668399 -0.050241
v -0.090093 0.678627 -0.072815
v 0.044844 0.736163 -0.053566
v -0.044844 0.736162 -0.053566
v 0.040808 0.823940 -0.053683
v -0.040808 0.823940 -0.053683
v 0.068120 0.615823 -0.049552
v -0.068120 0.615823 -0.049552
v 0.042905 0.664977 -0.029973
v 0.062533 0.641023 -0.048621
v 0.047569 0.637144 -0.031929
v -0.026519 0.816489 -0.027151
v -0.040059 0.868266 -0.053020
v -0.024897 0.858356 -0.025712
v 0.072963 0.673660 -0.062720
v 0.092112 0.649639 -0.071904
v 0.080504 0.619484 -0.063806
v 0.077620 0.645448 -0.061395
v -0.060436 0.834970 -0.072845
v -0.058529 0.882113 -0.074263
v 0.032988 0.732199 -0.028766
v 0.048717 0.699415 -0.052745
v 0.037266 0.696174 -0.029379
v 0.063969 0.743115 -0.070632
v 0.067773 0.705165 -0.067386
v -0.080504 0.619484 -0.063806
v 0.026519 0.816489 -0.027151
v 0.042283 0.778602 -0.053849
v 0.028519 0.773100 -0.028373
v 0.060436 0.834970 -0.072845
v 0.061817 0.787286 -0.071977
v -0.032988 0.732199 -0.028766
v -0.042905 0.664977 -0.029973
v -0.048717 0.699415 -0.052745
v -0.037266 0.696174 -0.029379
v -0.063969 0.743115 -0.070632
v -0.072963 0.673660 -0.062720
v -0.067772 0.705165 -0.067386
v 0.040059 0.868266 -0.053020
v 0.024897 0.858356 -0.025712
v 0.058529 0.882113 -0.074263
v -0.042283 0.778602 -0.053849
v -0.028519 0.773100 -0.028373
v -0.061817 0.787286 -0.071977
v -0.092112 0.649639 -0.071904
v -0.062533 0.641023 -0.048621
v -0.077620 0.645447 -0.061395
v -0.047569 0.637144 -0.031929
v 0.046890 0.913595 -0.063752
v 0.032066 0.899707 -0.037715
v 0.060618 0.613977 -0.041988
v -0.060618 0.613977 -0.041988
v -0.046890 0.913595 -0.063752
v -0.032067 0.899707 -0.037715
v -0.078211 0.708381 -0.071284
v 0.078142 0.708360 -0.071258
vn 0.4499 -0.1377 -0.8824
vn 0.6056 -0.1171 -0.7871
vn 0.4106 -0.1587 -0.8979
vn 0.0858 -0.0134 -0.9962
vn 0.3220 -0.0509 -0.9454
vn 0.2469 -0.1088 -0.9629
vn 0.0843 -0.0910 -0.9923
vn -0.3830 0.0753 -0.9207
vn -0.3392 -0.0304 -0.9402
vn -0.6898 0.1346 -0.7114
vn -0.7023 0.0425 -0.7106
vn -0.7714 0.1393 -0.6209
vn -0.8187 0.0687 -0.5701
vn 0.0439 -0.1384 -0.9894
vn 0.2451 -0.1573 -0.9567
vn 0.2428 -0.1415 -0.9597
vn 0.1450 -0.1384 -0.9797
vn 0.5804 -0.1457 -0.8012
vn 0.5100 -0.1335 -0.8497
vn 0.7473 -0.1238 -0.6529
vn 0.6755 -0.1237 -0.7269
vn 0.2756 -0.1328 -0.9521
vn -0.2469 -0.1088 -0.9629
vn -0.0843 -0.0910 -0.9923
vn -0.0330 -0.1486 -0.9884
vn -0.1218 -0.1322 -0.9837
vn 0.3392 -0.0304 -0.9402
vn 0.2842 -0.1442 -0.9479
vn -0.0090 -0.1243 -0.9922
vn 0.7023 0.0425 -0.7106
vn 0.6576 -0.0866 -0.7484
vn 0.8187 0.0687 -0.5701
vn 0.8130 -0.0351 -0.5812
vn -0.2451 -0.1573 -0.9567
vn -0.0439 -0.1384 -0.9894
vn -0.1450 -0.1384 -0.9797
vn -0.2428 -0.1415 -0.9597
vn 0.0090 -0.1243 -0.9922
vn -0.2756 -0.1328 -0.9521
vn -0.7473 -0.1238 -0.6529
vn -0.5804 -0.1457 -0.8012
vn -0.5100 -0.1335 -0.8497
vn -0.6755 -0.1237 -0.7269
vn -0.4499 -0.1377 -0.8824
vn -0.6056 -0.1171 -0.7871
vn -0.0858 -0.0134 -0.9962
vn 0.3830 0.0753 -0.9207
vn -0.3220 -0.0509 -0.9454
vn 0.6898 0.1346 -0.7114
vn 0.7714 0.1393 -0.6209
vn 0.0330 -0.1486 -0.9884
vn -0.2842 -0.1442 -0.9479
vn 0.1218 -0.1322 -0.9837
vn -0.6576 -0.0866 -0.7484
vn -0.8130 -0.0351 -0.5812
vn -0.4106 -0.1587 -0.8979
vn -0.4569 0.1031 -0.8835
vn -0.0435 0.0117 -0.9990
vn -0.6608 0.1692 -0.7312
vn 0.6608 0.1692 -0.7312
vn 0.0435 0.0117 -0.9990
vn 0.4568 0.1031 -0.8835
vn -0.8134 -0.1729 -0.5554
vn -0.7011 -0.1795 -0.6901
vn -0.6943 -0.1274 -0.7083
vn -0.7509 -0.1428 -0.6448
vn 0.8192 -0.0178 -0.5732
vn 0.8810 0.0063 -0.4730
vn 0.8775 -0.0060 -0.4796
vn 0.8150 -0.0153 -0.5792
vn 0.8764 -0.0205 -0.4811
vn 0.7953 -0.0228 -0.6058
vn -0.5270 -0.1636 -0.8340
vn -0.5969 -0.0793 -0.7984
vn -0.4743 -0.1368 -0.8697
vn -0.5471 -0.0592 -0.8350
vn -0.6645 -0.0469 -0.7458
vn -0.7024 -0.0930 -0.7056
vn 0.7526 -0.0301 -0.6578
vn 0.7053 -0.0266 -0.7084
vn -0.8865 -0.0881 -0.4543
vn -0.7770 -0.0858 -0.6237
vn -0.7444 -0.1522 -0.6501
vn -0.8695 -0.1444 -0.4723
vn -0.6167 -0.0774 -0.7834
vn -0.4721 -0.1343 -0.8713
vn -0.8764 -0.0205 -0.4811
vn -0.7953 -0.0228 -0.6058
vn -0.7867 -0.0448 -0.6157
vn -0.8805 -0.0524 -0.4712
vn -0.7053 -0.0266 -0.7084
vn -0.6739 -0.0360 -0.7379
vn 0.7770 -0.0858 -0.6237
vn 0.8865 -0.0881 -0.4543
vn 0.8695 -0.1444 -0.4723
vn 0.7444 -0.1522 -0.6501
vn 0.8134 -0.1729 -0.5554
vn 0.7011 -0.1795 -0.6901
vn 0.6165 -0.0774 -0.7835
vn 0.4721 -0.1343 -0.8713
vn 0.5270 -0.1636 -0.8340
vn -0.8775 -0.0060 -0.4796
vn -0.8150 -0.0153 -0.5792
vn -0.8192 -0.0178 -0.5732
vn -0.7753 -0.0325 -0.6308
vn -0.7526 -0.0301 -0.6578
vn 0.8805 -0.0524 -0.4712
vn 0.7867 -0.0448 -0.6157
vn 0.6739 -0.0360 -0.7379
vn 0.4742 -0.1368 -0.8697
vn 0.5969 -0.0793 -0.7984
vn 0.5471 -0.0592 -0.8350
vn 0.6943 -0.1275 -0.7083
vn 0.7024 -0.0930 -0.7056
vn 0.6645 -0.0469 -0.7458
vn 0.7509 -0.1428 -0.6448
vn 0.7144 -0.1186 -0.6896
vn -0.8810 0.0063 -0.4730
vn -0.3221 -0.0962 -0.9418
vn -0.7144 -0.1186 -0.6896
vn 0.7753 -0.0325 -0.6308
vn 0.3220 -0.0962 -0.9418
vt 0.609263 0.698398
vt 0.600072 0.697996
vt 0.610690 0.690427
vt 0.616325 0.065578
vt 0.629897 0.070544
vt 0.631809 0.093504
vt 0.619233 0.088897
vt 0.602250 0.061638
vt 0.606159 0.085232
vt 0.587876 0.058473
vt 0.592881 0.082374
vt 0.573673 0.056020
vt 0.579800 0.080161
vt 0.623944 0.735456
vt 0.613239 0.737820
vt 0.616100 0.716760
vt 0.626052 0.715563
vt 0.602309 0.739504
vt 0.606069 0.717416
vt 0.591454 0.740599
vt 0.596143 0.717817
vt 0.618533 0.698751
vt 0.631809 0.776232
vt 0.619232 0.780838
vt 0.621797 0.757585
vt 0.633335 0.753683
vt 0.606159 0.784503
vt 0.609961 0.760882
vt 0.629349 0.734066
vt 0.592881 0.787362
vt 0.597838 0.763273
vt 0.579800 0.789575
vt 0.585944 0.764846
vt 0.613240 0.131915
vt 0.623944 0.134279
vt 0.626052 0.154173
vt 0.616100 0.152976
vt 0.629350 0.135669
vt 0.618533 0.170985
vt 0.591455 0.129137
vt 0.602310 0.130232
vt 0.606069 0.152320
vt 0.596144 0.151919
vt 0.609264 0.171338
vt 0.600073 0.171739
vt 0.616324 0.804158
vt 0.602250 0.808098
vt 0.629896 0.799192
vt 0.587876 0.811262
vt 0.573672 0.813716
vt 0.621797 0.112151
vt 0.609961 0.108855
vt 0.633336 0.116053
vt 0.597838 0.106463
vt 0.585944 0.104890
vt 0.610690 0.179309
vt 0.600619 0.050972
vt 0.615228 0.054890
vt 0.585777 0.047982
vt 0.585777 0.821754
vt 0.615227 0.814846
vt 0.600618 0.818764
vt 0.669955 0.695875
vt 0.658640 0.696170
vt 0.659080 0.682483
vt 0.670033 0.682751
vt 0.656473 0.065086
vt 0.663784 0.067911
vt 0.670405 0.086823
vt 0.656082 0.082633
vt 0.670117 0.105601
vt 0.656497 0.102803
vt 0.647988 0.696924
vt 0.648936 0.682625
vt 0.637868 0.697899
vt 0.639451 0.683057
vt 0.649955 0.669124
vt 0.659784 0.669762
vt 0.642724 0.076719
vt 0.643884 0.098465
vt 0.670037 0.726574
vt 0.657655 0.727647
vt 0.658176 0.710985
vt 0.670011 0.710314
vt 0.645929 0.729900
vt 0.646879 0.712350
vt 0.670117 0.764135
vt 0.656497 0.766933
vt 0.657080 0.746636
vt 0.670036 0.744830
vt 0.643884 0.771271
vt 0.644947 0.749788
vt 0.657655 0.142088
vt 0.670038 0.143162
vt 0.670011 0.159422
vt 0.658176 0.158751
vt 0.669955 0.173861
vt 0.658641 0.173566
vt 0.645930 0.139835
vt 0.646879 0.157387
vt 0.647988 0.172812
vt 0.670404 0.782913
vt 0.656082 0.787102
vt 0.656473 0.804649
vt 0.649441 0.808468
vt 0.642724 0.793017
vt 0.670036 0.124906
vt 0.657080 0.123100
vt 0.644948 0.119948
vt 0.637869 0.171837
vt 0.648937 0.187111
vt 0.639452 0.186679
vt 0.659080 0.187253
vt 0.659784 0.199974
vt 0.649956 0.200612
vt 0.670034 0.186984
vt 0.664963 0.199491
vt 0.663784 0.801824
vt 0.641507 0.713174
vt 0.664963 0.670245
vt 0.649441 0.061268
vt 0.641472 0.156556
s 1
usemtl Char_Mlp
f 18/1/1 3/2/2 63/3/3
f 21/4/4 17/5/5 13/6/6 19/7/7
f 20/8/8 21/4/4 19/7/7 14/9/9
f 23/10/10 20/8/8 14/9/9 22/11/11
f 16/12/12 23/10/10 22/11/11 15/13/13
f 24/14/14 6/15/15 25/16/16 26/17/17
f 6/15/15 27/18/18 29/19/19 25/16/16
f 27/18/18 7/20/20 28/21/21 29/19/19
f 29/19/19 28/21/21 3/2/2 18/1/1
f 25/16/16 29/19/19 18/1/1 2/22/22
f 10/23/23 31/24/24 33/25/25 30/26/26
f 31/24/24 11/27/27 32/28/28 33/25/25
f 33/25/25 32/28/28 6/15/15 24/14/14
f 30/26/26 33/25/25 24/14/14 62/29/29
f 11/27/27 34/30/30 36/31/31 32/28/28
f 34/30/30 12/32/32 35/33/33 36/31/31
f 36/31/31 35/33/33 7/20/20 27/18/18
f 32/28/28 36/31/31 27/18/18 6/15/15
f 8/34/34 37/35/35 39/36/36 38/37/37
f 37/35/35 55/38/38 39/36/36
f 38/37/37 39/36/36 4/39/39
f 9/40/40 40/41/41 43/42/42 42/43/43
f 40/41/41 8/34/34 38/37/37 43/42/42
f 43/42/42 38/37/37 4/39/39 41/44/44
f 42/43/43 43/42/42 41/44/44 5/45/45
f 46/46/46 45/47/47 11/27/27 31/24/24
f 44/48/48 46/46/46 31/24/24 10/23/23
f 48/49/49 47/50/50 12/32/32 34/30/30
f 45/47/47 48/49/49 34/30/30 11/27/27
f 14/9/9 19/7/7 51/51/51 50/52/52
f 19/7/7 13/6/6 49/53/53 51/51/51
f 51/51/51 49/53/53 55/38/38 37/35/35
f 50/52/52 51/51/51 37/35/35 8/34/34
f 15/13/13 22/11/11 53/54/54 52/55/55
f 22/11/11 14/9/9 50/52/52 53/54/54
f 53/54/54 50/52/52 8/34/34 40/41/41
f 52/55/55 53/54/54 40/41/41 9/40/40
f 41/44/44 4/39/39 54/56/56
f 54/56/56 5/45/45 41/44/44
f 57/57/57 58/58/58 21/4/4 20/8/8
f 58/58/58 17/5/5 21/4/4
f 16/12/12 56/59/59 23/10/10
f 56/59/59 57/57/57 20/8/8 23/10/10
f 59/60/60 47/50/50 48/49/49
f 44/48/48 61/61/61 46/46/46
f 60/62/62 59/60/60 48/49/49 45/47/47
f 61/61/61 60/62/62 45/47/47 46/46/46
f 63/3/3 2/22/22 18/1/1
f 2/22/22 26/17/17 25/16/16
f 26/17/17 62/29/29 24/14/14
f 76/63/63 66/64/64 77/65/65 78/66/66
f 65/67/67 121/68/68 81/69/69 80/70/70
f 80/70/70 81/69/69 79/71/71 73/72/72
f 66/64/64 82/73/73 85/74/74 77/65/65
f 82/73/73 67/75/75 83/76/76 85/74/74
f 85/74/74 83/76/76 84/77/77
f 77/65/65 85/74/74 84/77/77 74/78/78
f 87/79/79 80/70/70 73/72/72 86/80/80
f 88/81/81 70/82/82 89/83/83 90/84/84
f 90/84/84 89/83/83 66/64/64 76/63/63
f 70/82/82 91/85/85 92/86/86 89/83/83
f 92/86/86 67/75/75 82/73/73
f 89/83/83 92/86/86 82/73/73 66/64/64
f 94/87/87 72/88/88 95/89/89 96/90/90
f 96/90/90 95/89/89 70/82/82 88/81/81
f 72/88/88 97/91/91 98/92/92 95/89/89
f 95/89/89 98/92/92 91/85/85 70/82/82
f 71/93/93 99/94/94 102/95/95 101/96/96
f 101/96/96 102/95/95 100/97/97 68/98/98
f 103/99/99 71/93/93 101/96/96 105/100/100
f 105/100/100 101/96/96 68/98/98 104/101/101
f 107/102/102 106/103/103 72/88/88 94/87/87
f 64/104/104 116/105/105 108/106/106 106/103/103
f 106/103/103 108/106/106 97/91/91 72/88/88
f 73/72/72 79/71/71 110/107/107 109/108/108
f 109/108/108 110/107/107 99/94/94 71/93/93
f 86/80/80 73/72/72 109/108/108 111/109/109
f 111/109/109 109/108/108 71/93/93 103/99/99
f 69/110/110 104/101/101 114/111/111 112/112/112
f 104/101/101 68/98/98 113/113/113 114/111/111
f 114/111/111 113/113/113 75/114/114 93/115/115
f 112/112/112 114/111/111 93/115/115
f 68/98/98 100/97/97 115/116/116 113/113/113
f 113/113/113 115/116/116 119/117/117 75/114/114
f 107/102/102 117/118/118 64/104/104 106/103/103
f 67/75/75 92/86/86 123/119/119
f 118/120/120 78/66/66 77/65/65 74/78/78
f 69/110/110 105/100/100 104/101/101
f 87/79/79 120/121/121 65/67/67 80/70/70
f 69/110/110 122/122/122 105/100/100
f 122/122/122 103/99/99 105/100/100
f 123/119/119 92/86/86 91/85/85
