# Blender 3.6.4
# www.blender.org
mtllib Triceps.mtl
o Char_lp
v 0.743673 0.211399 -0.241897
o Char_Mlp.016
v 0.210356 1.440317 -0.053786
v -0.210356 1.440317 -0.053786
v 0.209494 1.453655 -0.086497
v -0.209495 1.453655 -0.086497
v 0.216925 1.478099 -0.111594
v -0.216925 1.478099 -0.111594
v 0.237384 1.511064 -0.118313
v -0.237384 1.511064 -0.118313
v 0.235695 1.398521 -0.050712
v 0.241805 1.410327 -0.084251
v 0.258238 1.435274 -0.098662
v 0.276081 1.459572 -0.099935
v -0.235695 1.398521 -0.050712
v -0.241805 1.410327 -0.084251
v -0.258238 1.435274 -0.098662
v -0.276081 1.459572 -0.099935
v 0.274258 1.354664 -0.045723
v 0.281954 1.364896 -0.075045
v -0.274258 1.354664 -0.045723
v -0.281954 1.364896 -0.075045
v 0.209075 1.445197 -0.070668
v 0.195218 1.470975 -0.085267
v 0.196921 1.463149 -0.069948
v -0.209075 1.445197 -0.070668
v -0.195219 1.470975 -0.085266
v -0.196921 1.463150 -0.069948
v 0.211967 1.464680 -0.100170
v 0.197627 1.497450 -0.109718
v 0.194998 1.482181 -0.098583
v -0.211968 1.464680 -0.100170
v -0.197628 1.497450 -0.109717
v -0.194998 1.482181 -0.098582
v 0.225347 1.493852 -0.118551
v 0.204495 1.515879 -0.115683
v -0.225347 1.493852 -0.118551
v -0.204496 1.515879 -0.115683
v 0.275247 1.354022 -0.030405
v 0.296655 1.328969 -0.042129
v -0.237812 1.398966 -0.033448
v -0.221124 1.419430 -0.052623
v -0.223533 1.419565 -0.035074
v 0.276531 1.358300 -0.061051
v 0.301446 1.337174 -0.070674
v 0.298730 1.332923 -0.056028
v -0.236860 1.402253 -0.068390
v -0.223990 1.432133 -0.087166
v -0.220963 1.423550 -0.070552
v 0.288899 1.373324 -0.086072
v -0.249594 1.421846 -0.095083
v -0.238276 1.457691 -0.108311
v -0.230428 1.444256 -0.099902
v -0.266604 1.448057 -0.099372
v -0.259312 1.485714 -0.113210
v -0.247799 1.471651 -0.113070
v 0.221124 1.419430 -0.052623
v 0.237812 1.398966 -0.033448
v 0.223532 1.419565 -0.035074
v 0.223990 1.432133 -0.087166
v 0.236860 1.402253 -0.068390
v 0.220963 1.423550 -0.070552
v 0.238276 1.457691 -0.108311
v 0.249594 1.421846 -0.095083
v 0.230428 1.444256 -0.099902
v 0.259312 1.485714 -0.113210
v 0.266604 1.448057 -0.099372
v 0.247799 1.471651 -0.113070
v -0.275247 1.354022 -0.030405
v -0.252576 1.376410 -0.048698
v -0.254403 1.376928 -0.031965
v -0.276531 1.358300 -0.061051
v -0.262460 1.389304 -0.078760
v -0.255387 1.380443 -0.065336
v -0.288900 1.373325 -0.086072
v -0.277463 1.410650 -0.094022
v -0.269904 1.399691 -0.087205
v 0.252575 1.376410 -0.048698
v 0.254402 1.376927 -0.031965
v 0.262460 1.389304 -0.078760
v 0.255387 1.380443 -0.065336
v 0.277463 1.410650 -0.094022
v 0.269904 1.399691 -0.087205
v -0.296655 1.328969 -0.042129
v -0.301446 1.337174 -0.070674
v -0.298730 1.332923 -0.056028
v 0.275781 1.435472 -0.099007
v -0.276080 1.435062 -0.098995
v 0.396302 1.356767 -0.009593
v 0.397309 1.362099 -0.047778
v -0.397310 1.362099 -0.047779
v -0.396302 1.356767 -0.009593
v 0.302563 1.479825 -0.093887
v 0.318977 1.491397 -0.057976
v -0.302563 1.479825 -0.093887
v -0.318978 1.491398 -0.057976
v 0.353437 1.426173 -0.013681
v 0.328993 1.419819 -0.079258
v 0.354138 1.432004 -0.055837
v -0.353437 1.426173 -0.013681
v -0.328993 1.419819 -0.079258
v -0.354139 1.432004 -0.055837
v 0.356004 1.430659 -0.035114
v 0.371560 1.390979 -0.012575
v 0.399563 1.361240 -0.027430
v 0.371915 1.398056 -0.051077
v 0.374103 1.396253 -0.030952
v -0.318001 1.490086 -0.036014
v 0.366164 1.383596 0.000140
v 0.352811 1.388990 -0.075732
v 0.344418 1.428141 -0.072518
v 0.388773 1.359021 -0.064443
v 0.362263 1.394030 -0.064994
v -0.313772 1.487501 -0.079216
v 0.313771 1.487501 -0.079216
v 0.318000 1.490086 -0.036014
v -0.332853 1.455339 -0.015270
v -0.312102 1.448539 -0.085544
v -0.302689 1.441611 -0.093365
v -0.344419 1.428141 -0.072518
v -0.335446 1.461191 -0.056893
v -0.325851 1.456006 -0.076246
v -0.356004 1.430660 -0.035114
v -0.337109 1.460488 -0.036312
v 0.332853 1.455339 -0.015270
v 0.312102 1.448539 -0.085544
v 0.302689 1.441611 -0.093365
v 0.335445 1.461190 -0.056893
v 0.325850 1.456006 -0.076245
v 0.337109 1.460487 -0.036312
v -0.371560 1.390979 -0.012575
v -0.366165 1.383596 0.000140
v -0.352811 1.388990 -0.075732
v -0.388773 1.359022 -0.064443
v -0.371915 1.398057 -0.051077
v -0.362264 1.394030 -0.064994
v -0.399564 1.361241 -0.027430
v -0.374104 1.396253 -0.030952
v 0.326140 1.417106 -0.085223
v 0.393701 1.353739 -0.002859
v 0.411850 1.340814 -0.006110
v 0.410404 1.344547 -0.043907
v 0.414351 1.344702 -0.024520
v -0.335634 1.423402 -0.076357
v -0.414351 1.344702 -0.024520
v -0.411850 1.340814 -0.006110
v -0.326135 1.417102 -0.085234
v -0.410405 1.344548 -0.043907
v -0.394274 1.354406 -0.004343
vn -0.7202 -0.5291 -0.4487
vn -0.8270 -0.5231 -0.2060
vn -0.7915 -0.5672 -0.2278
vn -0.7102 -0.5627 -0.4230
vn -0.8714 -0.4881 -0.0492
vn 0.8714 -0.4881 -0.0492
vn 0.8270 -0.5231 -0.2060
vn 0.7915 -0.5672 -0.2278
vn 0.7202 -0.5291 -0.4487
vn 0.7102 -0.5627 -0.4230
vn -0.3326 -0.3565 -0.8731
vn -0.5418 -0.4860 -0.6857
vn -0.5744 -0.4849 -0.6595
vn -0.3990 -0.2959 -0.8679
vn 0.5419 -0.4860 -0.6857
vn 0.5744 -0.4849 -0.6595
vn 0.3326 -0.3565 -0.8731
vn 0.3990 -0.2959 -0.8679
vn -0.0981 -0.1391 -0.9854
vn -0.2341 -0.1100 -0.9660
vn 0.0981 -0.1391 -0.9854
vn 0.2341 -0.1100 -0.9660
vn -0.0403 -0.0240 -0.9989
vn -0.7400 -0.6712 0.0423
vn -0.7215 -0.6824 -0.1177
vn -0.7203 -0.6631 -0.2036
vn 0.8434 -0.5240 0.1192
vn 0.8510 -0.5252 -0.0027
vn 0.8076 -0.5790 0.1124
vn 0.7982 -0.6009 -0.0414
vn -0.6589 -0.6443 -0.3883
vn -0.6922 -0.6376 -0.3381
vn -0.5627 -0.5336 -0.6314
vn -0.6559 -0.5889 -0.4722
vn 0.7962 -0.5412 -0.2705
vn 0.6419 -0.5188 -0.5647
vn 0.6996 -0.6145 -0.3646
vn 0.4920 -0.5632 -0.6638
vn -0.4785 -0.4329 -0.7640
vn 0.3743 -0.4507 -0.8104
vn 0.0928 -0.3664 -0.9258
vn 0.2349 -0.4324 -0.8706
vn 0.0096 -0.2865 -0.9580
vn -0.1244 -0.2540 -0.9592
vn -0.2072 -0.1738 -0.9627
vn -0.1165 -0.1970 -0.9734
vn -0.2236 -0.2155 -0.9506
vn -0.8434 -0.5240 0.1192
vn -0.8510 -0.5252 -0.0027
vn -0.7982 -0.6009 -0.0414
vn -0.8076 -0.5790 0.1124
vn -0.7962 -0.5412 -0.2705
vn -0.6419 -0.5188 -0.5647
vn -0.4920 -0.5632 -0.6638
vn -0.6996 -0.6145 -0.3646
vn -0.3743 -0.4507 -0.8104
vn -0.0928 -0.3664 -0.9258
vn -0.0089 -0.2863 -0.9581
vn -0.2349 -0.4324 -0.8706
vn 0.1245 -0.2540 -0.9592
vn 0.0403 -0.0240 -0.9989
vn 0.2072 -0.1738 -0.9627
vn 0.2247 -0.2163 -0.9501
vn 0.1170 -0.1969 -0.9734
vn 0.7603 -0.6441 0.0838
vn 0.7453 -0.6614 -0.0847
vn 0.7400 -0.6712 0.0423
vn 0.7212 -0.6830 -0.1158
vn 0.6425 -0.6393 -0.4226
vn 0.4768 -0.5409 -0.6929
vn 0.6590 -0.6459 -0.3854
vn 0.5627 -0.5336 -0.6314
vn 0.3123 -0.4035 -0.8600
vn 0.1554 -0.2953 -0.9427
vn 0.4784 -0.4329 -0.7640
vn 0.0188 -0.1258 -0.9919
vn -0.7453 -0.6614 -0.0847
vn -0.7603 -0.6441 0.0838
vn -0.6425 -0.6393 -0.4226
vn -0.4768 -0.5409 -0.6929
vn -0.3123 -0.4035 -0.8600
vn -0.1554 -0.2956 -0.9426
vn -0.0168 -0.1250 -0.9920
vn 0.7211 -0.6586 -0.2150
vn 0.6921 -0.6355 -0.3423
vn 0.6559 -0.5889 -0.4722
vn 0.8387 0.4479 -0.3096
vn 0.8568 0.5073 0.0926
vn 0.8437 0.5273 0.1009
vn 0.8244 0.4737 -0.3098
vn 0.8273 0.4942 0.2672
vn 0.7646 0.4987 0.4082
vn 0.6713 0.6199 0.4063
vn 0.7752 0.6247 0.0938
vn 0.7839 0.5434 -0.3002
vn 0.6834 0.4813 0.5489
vn 0.6073 0.5898 0.5324
vn 0.5745 0.2646 -0.7746
vn 0.6331 0.2737 -0.7241
vn 0.6524 0.3526 -0.6709
vn 0.5456 0.2888 -0.7867
vn 0.7008 0.4712 -0.5355
vn -0.6571 0.0736 -0.7502
vn -0.6355 0.1472 -0.7579
vn -0.5993 0.1173 -0.7919
vn -0.6576 0.3615 -0.6610
vn -0.5752 0.2606 -0.7754
vn -0.8722 0.4475 -0.1976
vn -0.7784 0.2403 -0.5799
vn -0.6953 0.2616 -0.6694
vn -0.8454 0.4766 -0.2412
vn -0.4565 0.1255 -0.8808
vn -0.6164 0.2361 -0.7512
vn -0.8387 0.4479 -0.3096
vn -0.8523 0.5167 0.0814
vn -0.8364 0.5334 0.1260
vn -0.8568 0.5073 0.0926
vn -0.8013 0.5360 0.2657
vn -0.8273 0.4942 0.2673
vn 0.6571 0.0736 -0.7502
vn 0.7784 0.2403 -0.5799
vn 0.6937 0.2555 -0.6734
vn 0.5986 0.1157 -0.7926
vn 0.8722 0.4475 -0.1976
vn 0.8454 0.4766 -0.2412
vn 0.8523 0.5167 0.0813
vn 0.8364 0.5334 0.1260
vn 0.8013 0.5360 0.2657
vn -0.5658 0.3324 -0.7546
vn -0.6519 0.3529 -0.6712
vn -0.8238 0.4600 -0.3312
vn -0.7091 0.5024 -0.4947
vn -0.7836 0.5483 -0.2921
vn -0.8436 0.5273 0.1009
vn -0.7645 0.4982 0.4090
vn -0.7641 0.6357 0.1097
vn -0.6711 0.6194 0.4073
vn -0.7371 0.6675 0.1053
vn -0.6614 0.6838 0.3081
vn -0.6062 0.5894 0.5339
vn -0.8024 0.5450 -0.2430
vn 0.6575 0.6833 0.3175
vn 0.7359 0.6686 0.1070
vn 0.7848 0.5868 -0.1993
vn 0.6575 0.3614 -0.6611
vn 0.6355 0.1471 -0.7580
vn -0.6833 0.4790 0.5510
vt 0.232546 0.719271
vt 0.227362 0.726117
vt 0.221510 0.717211
vt 0.226476 0.710095
vt 0.221813 0.732410
vt 0.024912 0.818735
vt 0.030461 0.825028
vt 0.024608 0.833934
vt 0.035645 0.831875
vt 0.029574 0.841050
vt 0.242483 0.706025
vt 0.237427 0.712526
vt 0.231052 0.702917
vt 0.236137 0.695663
vt 0.040525 0.838619
vt 0.034150 0.848228
vt 0.045582 0.845120
vt 0.039236 0.855482
vt 0.248106 0.699986
vt 0.241841 0.688402
vt 0.051205 0.851159
vt 0.044939 0.862744
vt 0.057980 0.856772
vt 0.239411 0.778065
vt 0.244910 0.774076
vt 0.251551 0.787979
vt 0.024395 0.804647
vt 0.030516 0.809510
vt 0.029931 0.795220
vt 0.036020 0.799728
vt 0.250661 0.769904
vt 0.256682 0.783907
vt 0.256619 0.765639
vt 0.262115 0.779740
vt 0.036336 0.815243
vt 0.041926 0.821616
vt 0.042032 0.804909
vt 0.047941 0.810526
vt 0.262176 0.761527
vt 0.047391 0.828053
vt 0.052532 0.834043
vt 0.053584 0.816051
vt 0.058942 0.821274
vt 0.057994 0.839408
vt 0.064219 0.844015
vt 0.064133 0.826033
vt 0.069587 0.830157
vt 0.221296 0.746498
vt 0.227417 0.741635
vt 0.232921 0.751417
vt 0.226832 0.755925
vt 0.233237 0.735902
vt 0.238827 0.729529
vt 0.244842 0.740619
vt 0.238934 0.746236
vt 0.244293 0.723093
vt 0.249433 0.717103
vt 0.255843 0.729872
vt 0.250486 0.735094
vt 0.254896 0.711737
vt 0.254882 0.694373
vt 0.261121 0.707130
vt 0.266488 0.720988
vt 0.261034 0.725112
vt 0.035931 0.784895
vt 0.041851 0.789125
vt 0.042510 0.773080
vt 0.048008 0.777069
vt 0.047914 0.793674
vt 0.054108 0.798543
vt 0.053760 0.781241
vt 0.059717 0.785506
vt 0.059418 0.803127
vt 0.064595 0.807729
vt 0.065275 0.789618
vt 0.066970 0.819114
vt 0.238752 0.762020
vt 0.232833 0.766250
vt 0.244815 0.757472
vt 0.251009 0.752602
vt 0.256320 0.748019
vt 0.261496 0.743417
vt 0.263782 0.731813
vt 0.054650 0.763166
vt 0.059780 0.767238
vt 0.065215 0.771405
vt 0.305967 0.740724
vt 0.315197 0.739846
vt 0.320514 0.756887
vt 0.311106 0.757411
vt 0.325040 0.739084
vt 0.329512 0.756679
vt 0.333540 0.775766
vt 0.325207 0.776058
vt 0.316290 0.776441
vt 0.336837 0.756900
vt 0.337086 0.775787
vt 0.289364 0.743943
vt 0.297342 0.741886
vt 0.303217 0.758367
vt 0.296565 0.759623
vt 0.308240 0.776931
vt 0.083521 0.836582
vt 0.080344 0.819274
vt 0.086546 0.821472
vt 0.089521 0.805990
vt 0.092462 0.807202
vt 0.101669 0.841031
vt 0.092000 0.838885
vt 0.094904 0.823612
vt 0.105130 0.825663
vt 0.095897 0.808088
vt 0.100441 0.809260
vt 0.109066 0.810422
vt 0.111556 0.842932
vt 0.114581 0.826916
vt 0.118296 0.811300
vt 0.124717 0.827932
vt 0.128139 0.812061
vt 0.280423 0.714564
vt 0.288901 0.712260
vt 0.291806 0.727534
vt 0.283447 0.729674
vt 0.298570 0.710115
vt 0.302032 0.725482
vt 0.308457 0.708213
vt 0.311482 0.724229
vt 0.321618 0.723214
vt 0.099663 0.791522
vt 0.106316 0.792779
vt 0.114205 0.793735
vt 0.111339 0.774215
vt 0.119389 0.774705
vt 0.123613 0.794259
vt 0.132611 0.794467
vt 0.128306 0.775088
vt 0.136639 0.775380
vt 0.130285 0.766105
vt 0.138153 0.766102
vt 0.139404 0.775364
vt 0.122117 0.766028
vt 0.335053 0.785044
vt 0.327186 0.785041
vt 0.319018 0.785118
vt 0.286427 0.745153
vt 0.277246 0.731871
vt 0.139936 0.794246
s 1
usemtl Char_Mlp
f 4/1/1 22/2/2 24/3/3 23/4/4
f 22/2/2 2/5/5 24/3/3
f 3/6/6 25/7/7 27/8/8
f 25/7/7 5/9/9 26/10/10 27/8/8
f 6/11/11 28/12/12 30/13/13 29/14/14
f 28/12/12 4/1/1 23/4/4 30/13/13
f 5/9/9 31/15/15 33/16/16 26/10/10
f 31/15/15 7/17/17 32/18/18 33/16/16
f 34/19/19 6/11/11 29/14/14 35/20/20
f 7/17/17 36/21/21 37/22/22 32/18/18
f 36/21/21 9/23/23 37/22/22
f 38/24/24 18/25/25 39/26/26
f 3/6/6 42/27/27 41/28/28
f 41/28/28 42/27/27 40/29/29 14/30/30
f 18/25/25 43/31/31 45/32/32 39/26/26
f 43/31/31 19/33/33 44/34/34 45/32/32
f 5/9/9 25/7/7 48/35/35 47/36/36
f 25/7/7 3/6/6 41/28/28 48/35/35
f 48/35/35 41/28/28 14/30/30 46/37/37
f 47/36/36 48/35/35 46/37/37 15/38/38
f 19/33/33 49/39/39 44/34/34
f 7/17/17 31/15/15 52/40/40 51/41/41
f 31/15/15 5/9/9 47/36/36 52/40/40
f 52/40/40 47/36/36 15/38/38 50/42/42
f 51/41/41 52/40/40 50/42/42 16/43/43
f 9/23/23 36/21/21 55/44/44 54/45/45
f 36/21/21 7/17/17 51/41/41 55/44/44
f 55/44/44 51/41/41 16/43/43 53/46/46
f 54/45/45 55/44/44 53/46/46 17/47/47
f 58/48/48 56/49/49 10/50/50 57/51/51
f 2/5/5 22/2/2 61/52/52 56/49/49
f 22/2/2 4/1/1 59/53/53 61/52/52
f 61/52/52 59/53/53 11/54/54 60/55/55
f 56/49/49 61/52/52 60/55/55 10/50/50
f 4/1/1 28/12/12 64/56/56 59/53/53
f 28/12/12 6/11/11 62/57/57 64/56/56
f 64/56/56 62/57/57 12/58/58 63/59/59
f 59/53/53 64/56/56 63/59/59 11/54/54
f 6/11/11 34/19/19 67/60/60 62/57/57
f 34/19/19 8/61/61 65/62/62 67/60/60
f 67/60/60 65/62/62 13/63/63 66/64/64
f 62/57/57 67/60/60 66/64/64 12/58/58
f 14/30/30 40/29/29 70/65/65 69/66/66
f 69/66/66 70/65/65 68/67/67 20/68/68
f 15/38/38 46/37/37 73/69/69 72/70/70
f 46/37/37 14/30/30 69/66/66 73/69/69
f 73/69/69 69/66/66 20/68/68 71/71/71
f 72/70/70 73/69/69 71/71/71 21/72/72
f 16/43/43 50/42/42 76/73/73 75/74/74
f 50/42/42 15/38/38 72/70/70 76/73/73
f 76/73/73 72/70/70 21/72/72 74/75/75
f 53/46/46 16/43/43 75/74/74 87/76/76
f 57/51/51 10/50/50 77/77/77 78/78/78
f 78/78/78 77/77/77 18/25/25 38/24/24
f 10/50/50 60/55/55 80/79/79 77/77/77
f 60/55/55 11/54/54 79/80/80 80/79/79
f 80/79/79 79/80/80 19/33/33 43/31/31
f 77/77/77 80/79/79 43/31/31 18/25/25
f 11/54/54 63/59/59 82/81/81 79/80/80
f 63/59/59 12/58/58 81/82/82 82/81/81
f 82/81/81 81/82/82 49/39/39
f 79/80/80 82/81/81 49/39/39 19/33/33
f 12/58/58 66/64/64 86/83/83 81/82/82
f 66/64/64 13/63/63 86/83/83
f 20/68/68 68/67/67 83/84/84
f 21/72/72 71/71/71 85/85/85 84/86/86
f 71/71/71 20/68/68 85/85/85
f 74/75/75 21/72/72 84/86/86
f 35/20/20 8/61/61 34/19/19
f 58/48/48 2/5/5 56/49/49
f 85/85/85 20/68/68 83/84/84
f 74/75/75 75/74/74 76/73/73
f 87/76/76 17/47/47 53/46/46
f 98/87/87 102/88/88 106/89/89 105/90/90
f 102/88/88 96/91/91 103/92/92 106/89/89
f 106/89/89 103/92/92 88/93/93 104/94/94
f 105/90/90 106/89/89 104/94/94 89/95/95
f 103/92/92 108/96/96 139/97/97 88/93/93
f 97/98/98 110/99/99 112/100/100 109/101/101
f 110/99/99 98/87/87 105/90/90 112/100/100
f 112/100/100 105/90/90 89/95/95 111/102/102
f 109/101/101 112/100/100 111/102/102
f 94/103/103 118/104/104 117/105/105
f 117/105/105 118/104/104 146/106/106 100/107/107
f 95/108/108 113/109/109 121/110/110 120/111/111
f 113/109/109 94/103/103 117/105/105 121/110/110
f 121/110/110 117/105/105 143/112/112 119/113/113
f 120/111/111 121/110/110 119/113/113 101/114/114
f 107/115/115 95/108/108 120/111/111 123/116/116
f 123/116/116 120/111/111 101/114/114 122/117/117
f 116/118/118 123/116/116 122/117/117 99/119/119
f 92/120/120 114/121/121 128/122/122 125/123/123
f 114/121/121 93/124/124 127/125/125 128/122/122
f 128/122/122 127/125/125 98/87/87 110/99/99
f 125/123/123 128/122/122 110/99/99 97/98/98
f 93/124/124 115/126/126 129/127/127 127/125/125
f 115/126/126 124/128/128 129/127/127
f 129/127/127 124/128/128 96/91/91 102/88/88
f 127/125/125 129/127/127 102/88/88 98/87/87
f 100/107/107 146/106/106 132/129/129
f 101/114/114 119/113/113 135/130/130 134/131/131
f 119/113/113 143/112/112 135/130/130
f 135/130/130 132/129/129 133/132/132
f 134/131/131 135/130/130 90/133/133
f 99/119/119 122/117/117 137/134/134 130/135/135
f 122/117/117 101/114/114 134/131/131 137/134/134
f 137/134/134 134/131/131 90/133/133 136/136/136
f 130/135/135 137/134/134 136/136/136 91/137/137
f 91/137/137 136/136/136 144/138/138 145/139/139
f 136/136/136 90/133/133 144/138/138
f 145/139/139 148/140/140 91/137/137
f 90/133/133 133/132/132 147/141/141
f 88/93/93 139/97/97 140/142/142
f 89/95/95 104/94/94 142/143/143 141/144/144
f 104/94/94 88/93/93 140/142/142 142/143/143
f 138/145/145 126/146/146 125/123/123 97/98/98
f 109/101/101 138/145/145 97/98/98
f 126/146/146 92/120/120 125/123/123
f 108/96/96 103/92/92 96/91/91
f 141/144/144 111/102/102 89/95/95
f 116/118/118 107/115/115 123/116/116
f 135/130/130 143/112/112 100/107/107 132/129/129
f 143/112/112 117/105/105 100/107/107
f 90/133/133 135/130/130 133/132/132
f 144/138/138 90/133/133 147/141/141
f 131/147/147 99/119/119 130/135/135
f 130/135/135 91/137/137 148/140/140 131/147/147
