# Blender 3.3.1
# www.blender.org
mtllib cubo_materiales.mtl
o Cube
v 1.000000 1.000000 -1.000000
v 1.000000 -1.000000 -1.000000
v 1.000000 1.000000 1.000000
v 1.000000 -1.000000 1.000000
v -1.000000 1.000000 -1.000000
v -1.000000 -1.000000 -1.000000
v -1.000000 1.000000 1.000000
v -1.000000 -1.000000 1.000000
vn -0.0000 1.0000 -0.0000
vn -0.0000 -0.0000 1.0000
vn -1.0000 -0.0000 -0.0000
vn -0.0000 -1.0000 -0.0000
vn 1.0000 -0.0000 -0.0000
vn -0.0000 -0.0000 -1.0000
vt 0.00 0.00
vt 1 1
vt 0 1
vt 0 1
vt 0. 1
vt 0.255307 0.750000
vt 0.799454 0.287388
vt 0.505307 0.250000
vt 0.005307 0.500000
vt 0.255307 0.250000
vt 0.869664 0.802500
vt 0.505307 1.000000
vt 0.505307 0.000000
vt 0.255307 1.000000
vt 0.255307 0.000000
vt 0.005307 0.750000
s 0
usemtl textura
f 1/1/1 5/7/1 7/11/1 3/4/1
f 4/6/2 3/5/2 7/12/2 8/14/2
f 8/15/3 7/13/3 5/8/3 6/10/3
f 6/9/4 2/3/4 4/6/4 8/16/4
f 2/3/5 1/2/5 3/5/5 4/6/5
f 6/10/6 5/8/6 1/2/6 2/3/6
